<?xml version="1.0"?>
<VTKFile type="PolyData" version="0.1" byte_order="LittleEndian">
<PolyData>
<Piece NumberOfPoints="56" NumberOfVerts="0" NumberOfLines="0" NumberOfStrips="0" NumberOfPolys="0">
<Points>
<DataArray type="Float32" NumberOfComponents="3" format="ascii">
29.883300 4.465930 0.000000
11.901800 6.953390 0.000000
11.040900 21.419400 0.000000
35.646200 22.370100 0.000000
34.184000 23.817800 0.000000
33.301400 26.223700 0.000000
7.495630 12.455500 0.000000
33.299900 26.221300 0.000000
16.099800 4.970190 0.000000
26.018000 7.171060 0.000000
20.108300 17.957800 0.000000
33.293200 26.216500 0.000000
33.291700 26.214200 0.000000
26.452900 26.623600 0.000000
33.285600 26.210000 0.000000
33.284500 26.207500 0.000000
8.482240 20.347300 0.000000
33.277700 26.202800 0.000000
33.276400 26.200700 0.000000
5.286180 11.881200 0.000000
36.695500 23.627800 0.000000
33.270900 26.197000 0.000000
33.269700 26.194900 0.000000
24.273900 6.740750 0.000000
33.264200 26.190900 0.000000
33.262900 26.189200 0.000000
13.886000 17.537900 0.000000
24.266700 24.139700 0.000000
33.258400 26.186100 0.000000
29.913400 21.533200 0.000000
33.257000 26.184600 0.000000
30.128800 1.737820 0.000000
11.230900 18.957000 0.000000
28.749300 24.864800 0.000000
33.251200 26.180800 0.000000
1.660310 29.874900 0.000000
33.250100 26.178700 0.000000
33.245600 26.175400 0.000000
1.726940 15.694900 0.000000
33.244500 26.173000 0.000000
0.399791 27.067700 0.000000
33.240200 26.169900 0.000000
33.239000 26.167400 0.000000
33.234400 26.164100 0.000000
33.232900 26.161600 0.000000
16.147300 22.672200 0.000000
33.228500 26.158500 0.000000
33.226600 26.156300 0.000000
16.274200 7.494250 0.000000
33.222500 26.153700 0.000000
28.413800 23.692700 0.000000
33.220100 26.151400 0.000000
8.278210 14.113300 0.000000
33.216800 26.149200 0.000000
6.068560 1.634030 0.000000
33.214100 26.147000 0.000000
</DataArray>
</Points>
</Piece>
</PolyData>
</VTKFile>
