<?xml version="1.0"?>
<VTKFile type="PolyData" version="0.1" byte_order="LittleEndian">
<PolyData>
<Piece NumberOfPoints="19" NumberOfVerts="0" NumberOfLines="0" NumberOfStrips="0" NumberOfPolys="0">
<Points>
<DataArray type="Float32" NumberOfComponents="3" format="ascii">
33.944800 26.868100 0.000000
33.947700 26.865000 0.000000
33.944800 26.858300 0.000000
33.947600 26.854500 0.000000
18.100300 18.061000 0.000000
28.724400 30.959000 0.000000
33.945800 26.846000 0.000000
33.948400 26.842400 0.000000
33.945700 26.833900 0.000000
33.947800 26.829800 0.000000
33.944800 26.820100 0.000000
33.946600 26.815500 0.000000
33.943300 26.806200 0.000000
33.944700 26.802300 0.000000
24.009300 22.619100 0.000000
33.942100 26.792400 0.000000
33.944000 26.789000 0.000000
33.941400 26.779400 0.000000
33.943200 26.776100 0.000000
</DataArray>
</Points>
</Piece>
</PolyData>
</VTKFile>
