<?xml version="1.0"?>
<VTKFile type="PolyData" version="0.1" byte_order="LittleEndian">
<PolyData>
<Piece NumberOfPoints="27" NumberOfVerts="0" NumberOfLines="0" NumberOfStrips="0" NumberOfPolys="0">
<Points>
<DataArray type="Float32" NumberOfComponents="3" format="ascii">
33.943600 26.762400 0.000000
33.942500 26.757900 0.000000
33.944600 26.753500 0.000000
33.943400 26.749600 0.000000
33.945600 26.745500 0.000000
33.944900 26.741300 0.000000
33.947400 26.736400 0.000000
33.947200 26.731600 0.000000
33.950400 26.726600 0.000000
33.950500 26.721500 0.000000
33.952600 26.718300 0.000000
33.952700 26.712300 0.000000
11.393100 10.459300 0.000000
33.955800 26.708600 0.000000
23.640300 6.903920 0.000000
33.956000 26.703200 0.000000
33.958800 26.699000 0.000000
33.958300 26.693900 0.000000
33.959800 26.690200 0.000000
33.959000 26.684700 0.000000
27.857200 6.972260 0.000000
33.961000 26.680900 0.000000
33.960400 26.676300 0.000000
33.962900 26.672200 0.000000
33.962200 26.668000 0.000000
33.963600 26.665800 0.000000
33.962600 26.660300 0.000000
</DataArray>
</Points>
</Piece>
</PolyData>
</VTKFile>
