<?xml version="1.0"?>
<VTKFile type="PolyData" version="0.1" byte_order="LittleEndian">
<PolyData>
<Piece NumberOfPoints="30" NumberOfVerts="0" NumberOfLines="0" NumberOfStrips="0" NumberOfPolys="0">
<Points>
<DataArray type="Float32" NumberOfComponents="3" format="ascii">
17.426300 7.297450 0.000000
20.109600 16.052500 0.000000
5.795200 19.380500 0.000000
0.898636 15.658700 0.000000
34.108700 27.084200 0.000000
2.264150 21.923200 0.000000
16.269200 26.314000 0.000000
34.108400 27.082800 0.000000
28.999500 27.643300 0.000000
34.270200 13.908500 0.000000
20.022000 8.858650 0.000000
33.890800 7.687340 0.000000
34.095900 27.079700 0.000000
34.096200 27.078000 0.000000
34.084300 27.076400 0.000000
34.084600 27.075700 0.000000
34.068400 27.069600 0.000000
34.069400 27.068200 0.000000
34.060300 27.064200 0.000000
34.061700 27.061900 0.000000
34.057000 27.060100 0.000000
29.001100 5.824260 0.000000
28.985900 17.923900 0.000000
34.058100 27.058200 0.000000
34.048700 27.053500 0.000000
36.811200 16.050000 0.000000
8.722590 19.448100 0.000000
34.050000 27.052300 0.000000
16.183000 28.581100 0.000000
34.041100 27.048800 0.000000
</DataArray>
</Points>
</Piece>
</PolyData>
</VTKFile>
