<?xml version="1.0"?>
<VTKFile type="PolyData" version="0.1" byte_order="LittleEndian">
<PolyData>
<Piece NumberOfPoints="24" NumberOfVerts="0" NumberOfLines="0" NumberOfStrips="0" NumberOfPolys="0">
<Points>
<DataArray type="Float32" NumberOfComponents="3" format="ascii">
33.997300 26.986600 0.000000
34.000400 26.983200 0.000000
17.651000 5.868730 0.000000
33.993200 26.976700 0.000000
33.995800 26.974000 0.000000
33.988200 26.970000 0.000000
33.991800 26.967700 0.000000
1.628340 15.908300 0.000000
1.900690 19.339100 0.000000
30.662300 22.415600 0.000000
33.984500 26.964600 0.000000
33.987300 26.962500 0.000000
33.981300 26.958200 0.000000
33.986000 26.954500 0.000000
33.980500 26.948800 0.000000
33.983300 26.945800 0.000000
29.070600 27.315800 0.000000
13.086500 31.929300 0.000000
33.976600 26.941800 0.000000
33.979000 26.939000 0.000000
5.826990 13.543200 0.000000
33.971600 26.936500 0.000000
33.973300 26.934700 0.000000
33.965800 26.932600 0.000000
</DataArray>
</Points>
</Piece>
</PolyData>
</VTKFile>
