<?xml version="1.0"?>
<VTKFile type="PolyData" version="0.1" byte_order="LittleEndian">
<PolyData>
<Piece NumberOfPoints="22" NumberOfVerts="0" NumberOfLines="0" NumberOfStrips="0" NumberOfPolys="0">
<Points>
<DataArray type="Float32" NumberOfComponents="3" format="ascii">
6.791650 18.612900 0.000000
36.563800 12.129900 0.000000
24.499700 22.469000 0.000000
18.569800 13.379400 0.000000
33.912500 31.355400 0.000000
13.831600 17.503900 0.000000
33.939400 12.783200 0.000000
5.505830 4.897160 0.000000
36.440300 14.083200 0.000000
33.482500 1.810750 0.000000
22.563900 13.556700 0.000000
26.814000 18.727400 0.000000
19.161400 25.112700 0.000000
35.970800 25.336500 0.000000
34.002500 12.894300 0.000000
26.919400 26.617200 0.000000
16.495400 31.669200 0.000000
9.572500 8.215200 0.000000
21.806100 8.408950 0.000000
23.907400 20.774500 0.000000
25.749900 25.258600 0.000000
18.069900 28.885100 0.000000
</DataArray>
</Points>
</Piece>
</PolyData>
</VTKFile>
