<?xml version="1.0"?>
<VTKFile type="PolyData" version="0.1" byte_order="LittleEndian">
<PolyData>
<Piece NumberOfPoints="26" NumberOfVerts="0" NumberOfLines="0" NumberOfStrips="0" NumberOfPolys="0">
<Points>
<DataArray type="Float32" NumberOfComponents="3" format="ascii">
9.318430 13.761300 0.000000
3.577680 15.088700 0.000000
28.874500 27.948600 0.000000
1.006760 27.557800 0.000000
18.454100 31.106200 0.000000
5.684710 6.306150 0.000000
16.696000 23.324800 0.000000
11.589500 6.636980 0.000000
14.273000 1.165540 0.000000
11.576200 6.650880 0.000000
12.731000 21.479500 0.000000
11.575600 6.657640 0.000000
0.856412 6.982600 0.000000
36.215100 17.473400 0.000000
15.656500 23.809400 0.000000
23.245600 30.413100 0.000000
20.979800 1.293530 0.000000
11.552300 6.683780 0.000000
13.480000 20.188800 0.000000
11.554000 6.689470 0.000000
34.618400 12.908300 0.000000
24.365900 22.430100 0.000000
11.534700 6.713130 0.000000
34.243800 31.648200 0.000000
11.536100 6.718780 0.000000
3.579200 15.223200 0.000000
</DataArray>
</Points>
</Piece>
</PolyData>
</VTKFile>
