<?xml version="1.0"?>
<VTKFile type="PolyData" version="0.1" byte_order="LittleEndian">
<PolyData>
<Piece NumberOfPoints="43" NumberOfVerts="0" NumberOfLines="0" NumberOfStrips="0" NumberOfPolys="0">
<Points>
<DataArray type="Float32" NumberOfComponents="3" format="ascii">
33.100200 26.045600 0.000000
33.097300 26.043100 0.000000
16.382200 31.813600 0.000000
33.097200 26.041900 0.000000
33.094400 26.039600 0.000000
31.410300 21.711300 0.000000
23.576200 23.707400 0.000000
33.094400 26.038200 0.000000
33.091400 26.035900 0.000000
33.091600 26.034800 0.000000
33.088700 26.032200 0.000000
33.088900 26.031100 0.000000
33.085700 26.028500 0.000000
18.828800 12.672200 0.000000
33.086200 26.026800 0.000000
33.083500 26.024400 0.000000
12.471000 31.611200 0.000000
16.459100 7.050280 0.000000
33.083700 26.023100 0.000000
33.598300 5.096810 0.000000
17.398100 13.334400 0.000000
33.078300 26.018900 0.000000
10.058700 16.847500 0.000000
33.079200 26.017300 0.000000
29.213700 1.817650 0.000000
18.874600 12.651100 0.000000
33.074100 26.012300 0.000000
33.074400 26.011200 0.000000
33.071600 26.008200 0.000000
33.072100 26.007300 0.000000
22.937600 8.545150 0.000000
33.069600 26.004100 0.000000
33.069900 26.003100 0.000000
33.067500 26.000200 0.000000
33.068000 25.999300 0.000000
33.597500 5.064780 0.000000
18.971000 9.422550 0.000000
6.423480 13.552200 0.000000
33.065800 25.996200 0.000000
34.792200 24.211100 0.000000
33.066700 25.995100 0.000000
32.202200 4.120080 0.000000
33.064200 25.992300 0.000000
</DataArray>
</Points>
</Piece>
</PolyData>
</VTKFile>
