<?xml version="1.0"?>
<VTKFile type="PolyData" version="0.1" byte_order="LittleEndian">
<PolyData>
<Piece NumberOfPoints="61" NumberOfVerts="0" NumberOfLines="0" NumberOfStrips="0" NumberOfPolys="0">
<Points>
<DataArray type="Float32" NumberOfComponents="3" format="ascii">
3.769460 9.007000 0.000000
12.169200 10.639600 0.000000
33.045400 25.983000 0.000000
8.269650 20.501200 0.000000
33.047000 25.986400 0.000000
33.371300 23.299800 0.000000
33.041500 25.985300 0.000000
33.042700 25.987600 0.000000
33.040300 25.986700 0.000000
33.041700 25.989000 0.000000
6.525940 24.332400 0.000000
33.037500 25.986800 0.000000
18.653800 30.095100 0.000000
20.923100 0.011266 0.000000
12.970300 14.531600 0.000000
37.023000 27.677200 0.000000
33.039100 25.989700 0.000000
35.244200 26.697500 0.000000
20.002800 30.138800 0.000000
1.629450 16.352400 0.000000
7.568990 15.052000 0.000000
18.029100 22.825300 0.000000
33.035600 25.987300 0.000000
24.395100 31.967900 0.000000
33.038000 25.989800 0.000000
34.168200 2.501550 0.000000
8.252170 20.499400 0.000000
33.035900 25.988400 0.000000
10.429700 0.922565 0.000000
31.575700 1.625370 0.000000
33.038300 25.990600 0.000000
21.479200 6.823430 0.000000
17.395400 13.284700 0.000000
35.641900 14.617500 0.000000
33.033100 25.988500 0.000000
31.037600 31.650700 0.000000
3.814390 1.290210 0.000000
27.430100 23.530600 0.000000
34.924600 24.245600 0.000000
33.034000 25.990300 0.000000
3.130410 5.549230 0.000000
27.428800 23.501700 0.000000
15.618100 9.056420 0.000000
4.350530 12.987400 0.000000
33.028900 25.988400 0.000000
19.045900 4.363610 0.000000
15.641500 9.062220 0.000000
22.883200 31.483900 0.000000
23.314300 6.487050 0.000000
23.681100 7.517230 0.000000
34.036600 3.308200 0.000000
25.994200 8.257120 0.000000
2.161290 21.955000 0.000000
33.029300 25.989500 0.000000
3.851280 1.247950 0.000000
0.089961 4.959710 0.000000
17.408300 13.273000 0.000000
2.354010 14.118900 0.000000
8.233400 20.496600 0.000000
33.025300 25.988300 0.000000
14.629100 10.320900 0.000000
</DataArray>
</Points>
</Piece>
</PolyData>
</VTKFile>
