<?xml version="1.0"?>
<VTKFile type="PolyData" version="0.1" byte_order="LittleEndian">
<PolyData>
<Piece NumberOfPoints="39" NumberOfVerts="0" NumberOfLines="0" NumberOfStrips="0" NumberOfPolys="0">
<Points>
<DataArray type="Float32" NumberOfComponents="3" format="ascii">
3.361110 24.668500 0.000000
33.935300 26.556200 0.000000
33.934800 26.555500 0.000000
0.991345 17.992200 0.000000
14.059100 18.061400 0.000000
9.214850 4.678500 0.000000
17.868000 18.723100 0.000000
33.925200 26.538500 0.000000
33.924400 26.537900 0.000000
23.316800 27.453400 0.000000
31.609300 9.533230 0.000000
14.611100 15.067400 0.000000
18.699400 13.734900 0.000000
22.535600 22.058800 0.000000
33.914800 26.520200 0.000000
16.742700 31.692600 0.000000
29.953900 4.556600 0.000000
26.733100 26.353400 0.000000
33.914000 26.519800 0.000000
33.908400 26.509700 0.000000
33.906800 26.509400 0.000000
0.915492 7.598280 0.000000
33.904100 26.505200 0.000000
8.531970 20.007500 0.000000
33.902400 26.505200 0.000000
18.743200 13.800100 0.000000
33.899600 26.500600 0.000000
33.898100 26.500100 0.000000
11.911700 4.688710 0.000000
33.888500 26.484100 0.000000
33.886500 26.483800 0.000000
14.572000 15.218200 0.000000
33.883900 26.479600 0.000000
3.647980 9.518770 0.000000
30.973100 13.095200 0.000000
33.882300 26.479200 0.000000
33.880100 26.474600 0.000000
33.879200 26.473600 0.000000
23.694900 30.326500 0.000000
</DataArray>
</Points>
</Piece>
</PolyData>
</VTKFile>
