<?xml version="1.0"?>
<VTKFile type="PolyData" version="0.1" byte_order="LittleEndian">
<PolyData>
<Piece NumberOfPoints="18" NumberOfVerts="0" NumberOfLines="0" NumberOfStrips="0" NumberOfPolys="0">
<Points>
<DataArray type="Float32" NumberOfComponents="3" format="ascii">
11.404000 8.002840 0.000000
10.910000 21.792900 0.000000
24.218200 23.581200 0.000000
25.029300 31.835500 0.000000
29.363100 18.051300 0.000000
1.018910 9.531850 0.000000
29.606200 20.509100 0.000000
33.081200 1.457710 0.000000
36.905800 0.133653 0.000000
14.171000 15.288100 0.000000
26.693800 1.981040 0.000000
21.746000 3.117300 0.000000
36.319800 14.079100 0.000000
29.991700 26.391900 0.000000
15.647000 2.114840 0.000000
27.952900 6.593970 0.000000
20.404400 17.638300 0.000000
20.349700 10.142600 0.000000
</DataArray>
</Points>
</Piece>
</PolyData>
</VTKFile>
