<?xml version="1.0"?>
<VTKFile type="PolyData" version="0.1" byte_order="LittleEndian">
<PolyData>
<Piece NumberOfPoints="43" NumberOfVerts="0" NumberOfLines="0" NumberOfStrips="0" NumberOfPolys="0">
<Points>
<DataArray type="Float32" NumberOfComponents="3" format="ascii">
33.749700 26.345000 0.000000
33.744100 26.342200 0.000000
33.741600 26.339700 0.000000
27.632900 1.440440 0.000000
33.735100 26.336100 0.000000
33.731800 26.334400 0.000000
33.725100 26.330700 0.000000
33.722900 26.328400 0.000000
33.717100 26.325000 0.000000
33.712500 26.330000 0.000000
33.721500 26.324800 0.000000
33.720400 26.332000 0.000000
33.717900 26.330700 0.000000
33.710000 26.330400 0.000000
33.716400 26.334200 0.000000
33.706400 26.324800 0.000000
33.705900 26.321700 0.000000
33.701400 26.320200 0.000000
33.695900 26.326800 0.000000
33.705600 26.320600 0.000000
33.703700 26.327800 0.000000
35.372900 0.786801 0.000000
25.597100 2.382600 0.000000
33.700300 26.327700 0.000000
33.693400 26.326500 0.000000
33.699400 26.331500 0.000000
33.686300 26.322900 0.000000
33.684500 26.320000 0.000000
4.660540 5.812280 0.000000
33.679600 26.319100 0.000000
33.674900 26.324200 0.000000
33.682700 26.316800 0.000000
3.159520 20.201400 0.000000
33.675500 26.323000 0.000000
33.672000 26.328900 0.000000
33.671400 26.319200 0.000000
33.666000 26.318700 0.000000
33.659900 26.317000 0.000000
33.657000 26.315500 0.000000
33.652000 26.314600 0.000000
33.647100 26.319600 0.000000
33.654600 26.311800 0.000000
33.653200 26.319400 0.000000
</DataArray>
</Points>
</Piece>
</PolyData>
</VTKFile>
