<?xml version="1.0"?>
<VTKFile type="PolyData" version="0.1" byte_order="LittleEndian">
<PolyData>
<Piece NumberOfPoints="40" NumberOfVerts="0" NumberOfLines="0" NumberOfStrips="0" NumberOfPolys="0">
<Points>
<DataArray type="Float32" NumberOfComponents="3" format="ascii">
6.067960 1.633500 0.000000
33.208400 26.143100 0.000000
33.205100 26.141400 0.000000
33.202000 26.139600 0.000000
33.198400 26.137800 0.000000
33.195800 26.135300 0.000000
33.193300 26.133800 0.000000
30.384600 2.867550 0.000000
33.190600 26.131400 0.000000
6.042970 1.633260 0.000000
33.187700 26.129800 0.000000
33.186000 26.128000 0.000000
25.608700 28.980300 0.000000
33.182600 26.126000 0.000000
33.181700 26.124100 0.000000
33.178900 26.122300 0.000000
33.178000 26.120100 0.000000
22.023300 24.730500 0.000000
33.175800 26.118400 0.000000
33.174400 26.116500 0.000000
3.879150 6.085240 0.000000
33.172100 26.115100 0.000000
19.352000 3.700580 0.000000
13.838000 19.422000 0.000000
33.170700 26.112700 0.000000
33.168700 26.111400 0.000000
33.645900 5.085080 0.000000
33.166500 26.108400 0.000000
33.165000 26.107400 0.000000
33.161700 26.104400 0.000000
33.160500 26.103400 0.000000
33.157300 26.100600 0.000000
33.155900 26.099600 0.000000
13.873400 17.005000 0.000000
33.153900 26.098100 0.000000
33.151700 26.096900 0.000000
2.790740 9.954430 0.000000
14.131000 15.079300 0.000000
27.389600 18.783200 0.000000
33.150400 26.095400 0.000000
</DataArray>
</Points>
</Piece>
</PolyData>
</VTKFile>
