<?xml version="1.0"?>
<VTKFile type="PolyData" version="0.1" byte_order="LittleEndian">
<PolyData>
<Piece NumberOfPoints="20" NumberOfVerts="0" NumberOfLines="0" NumberOfStrips="0" NumberOfPolys="0">
<Points>
<DataArray type="Float32" NumberOfComponents="3" format="ascii">
33.961900 26.926900 0.000000
33.964200 26.924900 0.000000
33.958600 26.921400 0.000000
29.137800 17.804000 0.000000
33.961900 26.919200 0.000000
0.975936 23.509300 0.000000
33.956700 26.914400 0.000000
33.959600 26.912100 0.000000
29.122900 17.803200 0.000000
33.953700 26.907100 0.000000
29.124100 17.804800 0.000000
33.956300 26.904500 0.000000
33.950500 26.899800 0.000000
33.952700 26.897600 0.000000
33.946300 26.892700 0.000000
33.949100 26.890400 0.000000
33.944600 26.885500 0.000000
33.947300 26.882900 0.000000
24.138900 7.037860 0.000000
33.943700 26.877100 0.000000
</DataArray>
</Points>
</Piece>
</PolyData>
</VTKFile>
