<?xml version="1.0"?>
<VTKFile type="PolyData" version="0.1" byte_order="LittleEndian">
<PolyData>
<Piece NumberOfPoints="31" NumberOfVerts="0" NumberOfLines="0" NumberOfStrips="0" NumberOfPolys="0">
<Points>
<DataArray type="Float32" NumberOfComponents="3" format="ascii">
33.148400 26.094500 0.000000
33.146900 26.092800 0.000000
33.144900 26.091700 0.000000
33.143800 26.090000 0.000000
33.142300 26.089300 0.000000
33.141000 26.087500 0.000000
33.139600 26.086600 0.000000
15.074200 12.555600 0.000000
28.997600 26.749100 0.000000
33.138100 26.084800 0.000000
33.137500 26.083600 0.000000
33.135400 26.082000 0.000000
30.140100 2.780850 0.000000
33.134500 26.081400 0.000000
33.132200 26.079700 0.000000
33.131600 26.079200 0.000000
33.129000 26.077100 0.000000
33.128500 26.076100 0.000000
33.125700 26.073100 0.000000
33.125400 26.071800 0.000000
33.122000 26.068700 0.000000
33.121900 26.067400 0.000000
33.118700 26.065300 0.000000
33.118200 26.064000 0.000000
24.194000 7.061230 0.000000
33.115700 26.062500 0.000000
33.115400 26.061100 0.000000
33.108600 26.056700 0.000000
33.107700 26.053900 0.000000
33.105900 26.052400 0.000000
33.105300 26.050600 0.000000
</DataArray>
</Points>
</Piece>
</PolyData>
</VTKFile>
