<?xml version="1.0"?>
<VTKFile type="PolyData" version="0.1" byte_order="LittleEndian">
<PolyData>
<Piece NumberOfPoints="27" NumberOfVerts="0" NumberOfLines="0" NumberOfStrips="0" NumberOfPolys="0">
<Points>
<DataArray type="Float32" NumberOfComponents="3" format="ascii">
33.064100 25.988400 0.000000
3.410350 8.532330 0.000000
33.065400 25.987400 0.000000
33.060600 25.983500 0.000000
33.063700 25.983000 0.000000
33.058700 25.979300 0.000000
1.951700 13.412500 0.000000
23.999600 21.313400 0.000000
33.061200 25.980800 0.000000
33.056100 25.978300 0.000000
33.590700 5.072640 0.000000
31.802200 9.689500 0.000000
31.289500 21.670900 0.000000
33.058800 25.979400 0.000000
14.307800 12.091500 0.000000
33.053300 25.977300 0.000000
33.591500 5.056140 0.000000
33.055200 25.979500 0.000000
33.052700 25.978500 0.000000
33.054800 25.980900 0.000000
33.052700 25.979300 0.000000
15.600900 5.230020 0.000000
33.054100 25.980600 0.000000
33.052200 25.979200 0.000000
33.054200 25.982000 0.000000
0.951350 11.695400 0.000000
33.049500 25.980300 0.000000
</DataArray>
</Points>
</Piece>
</PolyData>
</VTKFile>
