<?xml version="1.0"?>
<VTKFile type="PolyData" version="0.1" byte_order="LittleEndian">
<PolyData>
<Piece NumberOfPoints="35" NumberOfVerts="0" NumberOfLines="0" NumberOfStrips="0" NumberOfPolys="0">
<Points>
<DataArray type="Float32" NumberOfComponents="3" format="ascii">
33.643900 26.319400 0.000000
33.648000 26.323100 0.000000
33.633400 26.314600 0.000000
33.631200 26.311700 0.000000
33.625700 26.315600 0.000000
33.625000 26.307500 0.000000
33.623500 26.310300 0.000000
33.610500 26.313300 0.000000
33.613400 26.323200 0.000000
20.010500 9.140270 0.000000
22.250100 7.800430 0.000000
33.605500 26.323900 0.000000
33.600300 26.320300 0.000000
33.604800 26.325300 0.000000
33.593100 26.315700 0.000000
33.594200 26.324300 0.000000
33.596700 26.313100 0.000000
33.597100 26.320900 0.000000
33.589100 26.322800 0.000000
33.586700 26.325400 0.000000
33.588100 26.323200 0.000000
33.575300 26.318100 0.000000
33.568000 26.310900 0.000000
33.571300 26.320600 0.000000
33.568500 26.318800 0.000000
33.567900 26.318900 0.000000
33.559300 26.316000 0.000000
33.570900 26.315900 0.000000
33.562200 26.309600 0.000000
33.553800 26.306800 0.000000
33.554700 26.315300 0.000000
6.305110 1.516170 0.000000
28.459900 4.424790 0.000000
13.093800 10.500400 0.000000
33.545800 26.314900 0.000000
</DataArray>
</Points>
</Piece>
</PolyData>
</VTKFile>
