<?xml version="1.0"?>
<VTKFile type="PolyData" version="0.1" byte_order="LittleEndian">
<PolyData>
<Piece NumberOfPoints="51" NumberOfVerts="0" NumberOfLines="0" NumberOfStrips="0" NumberOfPolys="0">
<Points>
<DataArray type="Float32" NumberOfComponents="3" format="ascii">
33.965100 26.657500 0.000000
28.672800 1.610130 0.000000
27.036600 6.147090 0.000000
33.964300 26.653800 0.000000
23.504500 29.818800 0.000000
6.629080 1.279930 0.000000
5.080470 5.122070 0.000000
12.262600 24.454100 0.000000
33.966800 26.651600 0.000000
33.966200 26.647500 0.000000
33.887500 30.249200 0.000000
31.673400 11.788500 0.000000
33.968100 26.645600 0.000000
33.967100 26.641500 0.000000
33.968900 26.639600 0.000000
1.677090 21.082300 0.000000
24.302000 20.947000 0.000000
25.620300 26.510700 0.000000
33.967800 26.635800 0.000000
28.000000 12.137400 0.000000
22.087400 17.143500 0.000000
13.747800 19.771000 0.000000
33.969300 26.634600 0.000000
33.968200 26.631600 0.000000
1.126670 9.180990 0.000000
3.921620 22.587500 0.000000
33.970200 26.629800 0.000000
15.037900 19.956600 0.000000
33.968800 26.626500 0.000000
2.027140 18.792100 0.000000
33.969800 26.624900 0.000000
33.968100 26.621300 0.000000
17.109100 6.497410 0.000000
31.418600 8.668690 0.000000
33.968600 26.620000 0.000000
29.281100 23.605500 0.000000
33.966700 26.615800 0.000000
24.310500 21.010100 0.000000
33.966600 26.614100 0.000000
33.964500 26.609900 0.000000
33.963900 26.608000 0.000000
18.829300 13.505700 0.000000
33.961800 26.603700 0.000000
33.961100 26.601700 0.000000
6.529280 5.399700 0.000000
33.958800 26.597400 0.000000
33.958000 26.595400 0.000000
33.955600 26.591500 0.000000
33.953700 26.590000 0.000000
0.843504 10.463700 0.000000
33.944100 26.574800 0.000000
</DataArray>
</Points>
</Piece>
</PolyData>
</VTKFile>
