<?xml version="1.0"?>
<VTKFile type="PolyData" version="0.1" byte_order="LittleEndian">
<PolyData>
<Piece NumberOfPoints="30" NumberOfVerts="0" NumberOfLines="0" NumberOfStrips="0" NumberOfPolys="0">
<Points>
<DataArray type="Float32" NumberOfComponents="3" format="ascii">
34.043100 27.047200 0.000000
8.715130 19.473700 0.000000
34.033700 27.044100 0.000000
34.035000 27.042700 0.000000
19.380200 14.002500 0.000000
34.025800 27.039100 0.000000
34.028300 27.036800 0.000000
34.024500 27.035200 0.000000
17.830800 18.193600 0.000000
34.026600 27.033400 0.000000
34.019100 27.029400 0.000000
18.542500 16.550300 0.000000
34.021000 27.027200 0.000000
8.715810 19.523900 0.000000
34.013900 27.023000 0.000000
34.016000 27.020500 0.000000
14.286600 15.250400 0.000000
36.561900 0.206852 0.000000
34.008500 27.015600 0.000000
34.011100 27.012400 0.000000
24.184500 9.252380 0.000000
8.710110 19.553500 0.000000
34.004500 27.006200 0.000000
34.007400 27.002700 0.000000
21.096500 0.044131 0.000000
18.076700 24.731500 0.000000
7.864560 8.407970 0.000000
34.001400 26.995900 0.000000
11.978100 25.872100 0.000000
34.004000 26.992600 0.000000
</DataArray>
</Points>
</Piece>
</PolyData>
</VTKFile>
