<?xml version="1.0"?>
<VTKFile type="PolyData" version="0.1" byte_order="LittleEndian">
<PolyData>
<Piece NumberOfPoints="44" NumberOfVerts="0" NumberOfLines="0" NumberOfStrips="0" NumberOfPolys="0">
<Points>
<DataArray type="Float32" NumberOfComponents="3" format="ascii">
33.823700 26.393800 0.000000
33.823300 26.393400 0.000000
8.416250 14.453600 0.000000
26.237100 26.389200 0.000000
33.820600 26.390400 0.000000
33.820500 26.390200 0.000000
18.976800 31.200500 0.000000
33.817800 26.387300 0.000000
33.817600 26.387200 0.000000
33.808300 26.385700 0.000000
33.811000 26.379600 0.000000
33.804300 26.375600 0.000000
33.800800 26.373800 0.000000
24.804600 32.082600 0.000000
33.794800 26.370300 0.000000
33.793600 26.367500 0.000000
33.788700 26.365300 0.000000
33.788100 26.361800 0.000000
1.490910 20.496900 0.000000
33.783800 26.360000 0.000000
33.777500 26.362500 0.000000
33.787600 26.359000 0.000000
33.786800 26.365000 0.000000
33.784800 26.362900 0.000000
33.776200 26.362600 0.000000
33.784300 26.365900 0.000000
15.852300 24.629900 0.000000
33.775700 26.358200 0.000000
33.775000 26.365800 0.000000
33.779200 26.355700 0.000000
18.942600 8.474060 0.000000
33.781500 26.362600 0.000000
33.776900 26.360900 0.000000
33.772400 26.363600 0.000000
33.776900 26.363300 0.000000
33.768700 26.362800 0.000000
33.767800 26.356000 0.000000
33.767300 26.359200 0.000000
33.765300 26.351300 0.000000
33.767600 26.362000 0.000000
11.905900 5.149150 0.000000
33.764300 26.357300 0.000000
33.759400 26.354200 0.000000
33.764000 26.362000 0.000000
</DataArray>
</Points>
</Piece>
</PolyData>
</VTKFile>
