<?xml version="1.0"?>
<VTKFile type="PolyData" version="0.1" byte_order="LittleEndian">
<PolyData>
<Piece NumberOfPoints="30" NumberOfVerts="0" NumberOfLines="0" NumberOfStrips="0" NumberOfPolys="0">
<Points>
<DataArray type="Float32" NumberOfComponents="3" format="ascii">
33.874900 26.468900 0.000000
33.872400 26.464900 0.000000
15.641100 9.665620 0.000000
33.870500 26.464200 0.000000
33.868000 26.459800 0.000000
33.866300 26.458600 0.000000
33.863900 26.454300 0.000000
33.862600 26.452900 0.000000
33.860400 26.448300 0.000000
33.859600 26.446800 0.000000
5.936540 7.696840 0.000000
33.857500 26.442200 0.000000
33.856900 26.440900 0.000000
33.854500 26.435700 0.000000
33.853700 26.434400 0.000000
33.851100 26.429500 0.000000
24.414400 26.522000 0.000000
33.850300 26.428400 0.000000
33.847500 26.423700 0.000000
33.846400 26.423000 0.000000
33.840600 26.414600 0.000000
33.839800 26.413600 0.000000
33.837300 26.409700 0.000000
33.837100 26.408900 0.000000
27.950200 11.798300 0.000000
33.834300 26.405200 0.000000
33.833500 26.404500 0.000000
33.830600 26.401100 0.000000
33.829700 26.400500 0.000000
33.827000 26.397200 0.000000
</DataArray>
</Points>
</Piece>
</PolyData>
</VTKFile>
