<?xml version="1.0"?>
<VTKFile type="PolyData" version="0.1" byte_order="LittleEndian">
<PolyData>
<Piece NumberOfPoints="41" NumberOfVerts="0" NumberOfLines="0" NumberOfStrips="0" NumberOfPolys="0">
<Points>
<DataArray type="Float32" NumberOfComponents="3" format="ascii">
33.531900 26.300400 0.000000
33.526800 26.305300 0.000000
33.523100 26.296100 0.000000
33.526800 26.308700 0.000000
15.635500 31.351500 0.000000
6.301460 1.521670 0.000000
33.519400 26.308800 0.000000
33.514000 26.303900 0.000000
33.519000 26.311900 0.000000
33.501600 26.298200 0.000000
33.500900 26.305700 0.000000
33.504900 26.295500 0.000000
25.641400 2.158600 0.000000
33.505000 26.304300 0.000000
33.495800 26.306500 0.000000
33.493200 26.309100 0.000000
33.495600 26.309200 0.000000
15.789300 31.283400 0.000000
33.480500 26.303700 0.000000
17.291300 21.582900 0.000000
33.479500 26.303900 0.000000
4.195610 6.004240 0.000000
33.467500 26.294200 0.000000
33.468600 26.303100 0.000000
33.471300 26.291900 0.000000
33.472000 26.301600 0.000000
33.463100 26.304200 0.000000
33.459700 26.303800 0.000000
33.462500 26.309000 0.000000
33.457700 26.300300 0.000000
33.453200 26.297000 0.000000
33.451300 26.300100 0.000000
33.445000 26.293500 0.000000
33.451100 26.304000 0.000000
33.447800 26.303200 0.000000
33.447400 26.304400 0.000000
33.438000 26.300900 0.000000
27.277400 1.736830 0.000000
33.439800 26.296600 0.000000
33.432200 26.291100 0.000000
33.434000 26.301100 0.000000
</DataArray>
</Points>
</Piece>
</PolyData>
</VTKFile>
