<?xml version="1.0"?>
<VTKFile type="PolyData" version="0.1" byte_order="LittleEndian">
<PolyData>
<Piece NumberOfPoints="34" NumberOfVerts="0" NumberOfLines="0" NumberOfStrips="0" NumberOfPolys="0">
<Points>
<DataArray type="Float32" NumberOfComponents="3" format="ascii">
33.429700 26.301400 0.000000
33.424100 26.290400 0.000000
33.422200 26.300200 0.000000
33.415600 26.305200 0.000000
25.535900 2.069840 0.000000
33.395400 26.285200 0.000000
33.393000 26.283000 0.000000
33.386200 26.279400 0.000000
33.383400 26.277000 0.000000
33.376100 26.273600 0.000000
33.373500 26.270900 0.000000
33.368800 26.275500 0.000000
33.369100 26.276400 0.000000
33.356300 26.262700 0.000000
33.354400 26.260300 0.000000
1.588790 19.916400 0.000000
33.345300 26.254800 0.000000
33.340900 26.250100 0.000000
14.196600 1.886530 0.000000
31.919100 16.447400 0.000000
33.338000 26.248100 0.000000
33.334300 26.258900 0.000000
33.334000 26.258700 0.000000
33.336800 26.247900 0.000000
33.329800 26.243500 0.000000
20.169500 29.976700 0.000000
33.326800 26.240700 0.000000
9.628270 3.850330 0.000000
33.319600 26.236100 0.000000
33.317100 26.232900 0.000000
33.313100 26.230400 0.000000
33.311700 26.241600 0.000000
33.310400 26.241500 0.000000
33.309300 26.229000 0.000000
</DataArray>
</Points>
</Piece>
</PolyData>
</VTKFile>
