<?xml version="1.0"?>
<VTKFile type="PolyData" version="0.1" byte_order="LittleEndian">
<PolyData>
<Piece NumberOfPoints="7" NumberOfVerts="0" NumberOfLines="0" NumberOfStrips="0" NumberOfPolys="0">
<Points>
<DataArray type="Float32" NumberOfComponents="3" format="ascii">
13.604400 17.267300 0.000000
36.273800 13.694600 0.000000
2.432360 11.007500 0.000000
2.129860 24.165900 0.000000
2.466240 4.100010 0.000000
9.808870 21.854400 0.000000
14.894000 17.921400 0.000000
</DataArray>
</Points>
</Piece>
</PolyData>
</VTKFile>
