<?xml version="1.0"?>
<VTKFile type="PolyData" version="0.1" byte_order="LittleEndian">
<PolyData>
<Piece NumberOfPoints="18" NumberOfVerts="0" NumberOfLines="0" NumberOfStrips="0" NumberOfPolys="0">
<Points>
<DataArray type="Float32" NumberOfComponents="3" format="ascii">
0.127912 9.730640 0.000000
24.401900 14.731500 0.000000
18.095700 19.747700 0.000000
2.276200 19.720600 0.000000
30.293600 15.325700 0.000000
16.957300 8.768530 0.000000
19.582900 17.308800 0.000000
0.277242 6.498100 0.000000
18.228700 29.645700 0.000000
11.461200 4.130170 0.000000
30.826200 1.755370 0.000000
11.612100 17.726500 0.000000
2.220420 21.516200 0.000000
1.526460 29.871800 0.000000
35.972000 10.240800 0.000000
33.675700 13.078100 0.000000
29.382400 18.242700 0.000000
11.536200 20.868400 0.000000
</DataArray>
</Points>
</Piece>
</PolyData>
</VTKFile>
