<?xml version="1.0"?>
<VTKFile type="PolyData" version="0.1" byte_order="LittleEndian">
<PolyData>
<Piece NumberOfPoints="24" NumberOfVerts="0" NumberOfLines="0" NumberOfStrips="0" NumberOfPolys="0">
<Points>
<DataArray type="Float32" NumberOfComponents="3" format="ascii">
17.853900 17.636000 0.000000
33.712400 13.034000 0.000000
22.290400 15.856800 0.000000
17.555500 20.527800 0.000000
29.339500 18.283100 0.000000
6.269810 13.456500 0.000000
6.358860 15.953500 0.000000
24.915700 11.814200 0.000000
26.142000 3.024160 0.000000
11.561200 19.655700 0.000000
3.661080 22.813400 0.000000
22.314400 15.751600 0.000000
23.216300 12.327700 0.000000
0.905310 5.048180 0.000000
5.185220 11.525900 0.000000
34.463300 13.901900 0.000000
31.879100 17.203900 0.000000
4.301270 23.641000 0.000000
23.112500 12.391700 0.000000
20.761100 12.461300 0.000000
16.548000 3.213640 0.000000
12.983000 30.033900 0.000000
19.602800 29.790100 0.000000
23.664500 21.033900 0.000000
</DataArray>
</Points>
</Piece>
</PolyData>
</VTKFile>
