<?xml version='1.0' encoding='utf-8'?>
<VTKFile type="UnstructuredGrid" version="0.1" byte_order="LittleEndian"><UnstructuredGrid><Piece NumberOfPoints="14" NumberOfCells="0"><Points><DataArray type="Float32" NumberOfComponents="3" format="ascii">34.7495 13.2132 0
34.9988 4.93035 0
37.0257 31.495 0
22.8201 18.32 0
11.627 17.367 0
35.5728 6.54721 0
32.4866 9.9458 0
21.1663 17.513 0
28.5569 21.754 0
4.46454 22.856 0
37.034 2.85878 0
30.9141 14.0561 0
2.66321 0.713052 0
7.81639 1.28251 0</DataArray></Points><Cells><DataArray type="Int32" Name="connectivity" format="ascii" /><DataArray type="Int32" Name="offsets" format="ascii" /><DataArray type="UInt8" Name="types" format="ascii" /></Cells></Piece></UnstructuredGrid></VTKFile>